<?xml version="1.0" encoding="UTF-8"?>
<svg xmlns="http://www.w3.org/2000/svg" xmlns:xlink="http://www.w3.org/1999/xlink" width="24pt" height="24pt" viewBox="0 0 24 24" version="1.1">
<g id="surface11">
<path style=" stroke:none;fill-rule:evenodd;fill:rgb(96.099794%,96.099794%,96.099794%);fill-opacity:1;" d="M 12.546875 1.402344 L 2.546875 5.597656 L 2.546875 17.203125 L 7.546875 19.304688 L 12.546875 21.402344 L 17.546875 19.304688 L 22.546875 17.203125 L 22.546875 5.597656 Z M 12.546875 1.402344 "/>
<path style=" stroke:none;fill-rule:evenodd;fill:rgb(89.799344%,89.799344%,89.799344%);fill-opacity:1;" d="M 17.125 15.664062 L 17.125 9.941406 L 16.875 9.941406 L 16.875 15.664062 L 17 15.882812 L 21.953125 17.960938 L 22.050781 17.730469 Z M 17.125 15.664062 "/>
<path style=" stroke:none;fill-rule:evenodd;fill:rgb(89.799344%,89.799344%,89.799344%);fill-opacity:1;" d="M 7.125 15.664062 L 7.125 9.941406 L 6.875 9.941406 L 6.875 15.664062 L 1.953125 17.730469 L 2.046875 17.960938 L 7 15.882812 Z M 7.125 15.664062 "/>
<path style=" stroke:none;fill-rule:evenodd;fill:rgb(89.799344%,89.799344%,89.799344%);fill-opacity:1;" d="M 11.875 17.761719 L 6.953125 19.828125 L 7.046875 20.058594 L 12 17.980469 L 16.953125 20.058594 L 17.046875 19.828125 Z M 11.875 17.761719 "/>
<path style=" stroke:none;fill-rule:evenodd;fill:rgb(89.799344%,89.799344%,89.799344%);fill-opacity:1;" d="M 17.125 9.859375 L 17.125 4.140625 L 16.875 4.140625 L 16.875 9.859375 L 17 10.078125 L 21.953125 12.15625 L 22.050781 11.925781 Z M 17.125 9.859375 "/>
<path style=" stroke:none;fill-rule:evenodd;fill:rgb(89.799344%,89.799344%,89.799344%);fill-opacity:1;" d="M 7.125 9.859375 L 7.125 4.140625 L 6.875 4.140625 L 6.875 9.859375 L 1.953125 11.925781 L 2.046875 12.15625 L 7 10.078125 Z M 7.125 9.859375 "/>
<path style=" stroke:none;fill-rule:evenodd;fill:rgb(89.799344%,89.799344%,89.799344%);fill-opacity:1;" d="M 11.875 2.636719 L 11.875 5.644531 L 12 5.695312 L 12.125 5.644531 L 12.125 2.636719 L 12 2.585938 Z M 11.875 2.636719 "/>
<path style=" stroke:none;fill-rule:evenodd;fill:rgb(74.900435%,74.900435%,74.900435%);fill-opacity:1;" d="M 8.292969 4.140625 L 12 2.585938 L 15.707031 4.140625 L 12 5.695312 Z M 17.5 4.472656 L 17.5 3.808594 L 12 1.5 L 6.5 3.808594 L 6.5 4.472656 L 12 6.78125 C 12 6.78125 15.699219 5.226562 17.5 4.472656 Z M 17.5 4.472656 "/>
<path style=" stroke:none;fill-rule:evenodd;fill:rgb(74.900435%,74.900435%,74.900435%);fill-opacity:1;" d="M 11.5 15.484375 L 11.5 18.597656 L 12.5 18.175781 L 12.5 15.484375 L 12 15.695312 Z M 11.5 15.484375 "/>
<path style=" stroke:none;fill-rule:evenodd;fill:rgb(74.900435%,74.900435%,74.900435%);fill-opacity:1;" d="M 21.5 17.511719 L 17.5 19.191406 L 17.5 14.472656 L 21.5 12.792969 Z M 21.5 11.289062 L 21.5 11.707031 L 17 13.597656 L 16.5 13.386719 L 16.5 13.804688 L 15.707031 14.140625 L 16.5 14.472656 L 16.5 19.609375 L 15.707031 19.941406 L 17 20.484375 L 22.5 18.175781 L 22.5 11.707031 Z M 21.5 11.289062 "/>
<path style=" stroke:none;fill-rule:evenodd;fill:rgb(74.900435%,74.900435%,74.900435%);fill-opacity:1;" d="M 6.5 19.191406 L 2.5 17.511719 L 2.5 12.792969 L 6.5 14.472656 Z M 7.5 14.890625 L 7.5 14.472656 L 8.292969 14.136719 L 7.5 13.804688 L 7.5 13.386719 L 7 13.597656 L 2.5 11.710938 L 2.5 11.289062 L 1.5 11.707031 L 1.5 18.175781 L 7 20.484375 L 8.292969 19.941406 L 7.5 19.609375 Z M 7.5 14.890625 "/>
<path style=" stroke:none;fill-rule:evenodd;fill:rgb(74.900435%,74.900435%,74.900435%);fill-opacity:1;" d="M 3.292969 6.238281 L 7 4.683594 L 10.707031 6.238281 L 7 7.792969 Z M 6.5 13.386719 L 2.5 11.707031 L 2.5 6.988281 L 6.5 8.667969 Z M 7.5 13.808594 L 7.5 8.667969 L 12 6.78125 L 12.5 6.988281 L 12.5 5.90625 L 7 3.597656 L 1.5 5.90625 L 1.5 12.375 L 7 14.683594 L 8.292969 14.140625 Z M 7.5 13.808594 "/>
<path style=" stroke:none;fill-rule:evenodd;fill:rgb(74.900435%,74.900435%,74.900435%);fill-opacity:1;" d="M 21.5 11.710938 L 17.5 13.386719 L 17.5 8.667969 L 21.5 6.988281 Z M 13.292969 6.238281 L 17 4.683594 L 20.707031 6.238281 L 17 7.792969 Z M 17 3.597656 L 11.5 5.90625 L 11.5 6.988281 L 12 6.78125 L 16.5 8.667969 L 16.5 13.804688 L 15.707031 14.140625 L 17 14.683594 L 22.5 12.375 L 22.5 5.90625 Z M 17 3.597656 "/>
<path style=" stroke:none;fill-rule:evenodd;fill:rgb(74.900435%,74.900435%,74.900435%);fill-opacity:1;" d="M 16.5 19.609375 L 12.5 21.289062 L 12.5 16.570312 L 16.5 14.890625 Z M 11.5 21.289062 L 7.5 19.609375 L 7.5 14.890625 L 11.5 16.570312 Z M 16.5 13.386719 L 16.5 13.804688 L 12 15.695312 L 8.292969 14.136719 L 7.5 13.804688 L 7.5 13.386719 L 6.5 13.804688 L 6.5 20.273438 L 12 22.582031 L 17.5 20.273438 L 17.5 13.804688 Z M 16.5 13.386719 "/>
<path style=" stroke:none;fill-rule:evenodd;fill:rgb(96.49958%,76.49958%,74.900435%);fill-opacity:1;" d="M 12 6.339844 L 16.945312 8.414062 L 16.945312 14.0625 L 12 16.136719 L 7.054688 14.0625 L 7.054688 8.414062 Z M 12 6.339844 "/>
<path style=" stroke:none;fill-rule:evenodd;fill:rgb(91.000229%,65.499351%,63.50042%);fill-opacity:1;" d="M 12.125 6.238281 L 11.875 6.238281 L 11.875 11.960938 L 6.953125 14.023438 L 7.046875 14.253906 L 12 12.175781 L 16.953125 14.253906 L 17.046875 14.023438 L 12.125 11.960938 Z M 12.125 6.238281 "/>
<path style=" stroke:none;fill-rule:evenodd;fill:rgb(86.700237%,6.700237%,0%);fill-opacity:1;" d="M 12.5 15.484375 L 12.5 10.765625 L 16.5 9.089844 L 16.5 13.808594 Z M 7.5 9.089844 L 11.5 10.765625 L 11.5 15.484375 L 7.5 13.808594 Z M 15.707031 8.335938 L 12 9.890625 L 8.292969 8.335938 L 12 6.78125 Z M 12 5.695312 L 6.5 8.003906 L 6.5 14.472656 L 12 16.78125 L 17.5 14.472656 L 17.5 8.003906 Z M 12 5.695312 "/>
</g>
</svg>
