<?xml version="1.0" encoding="UTF-8"?>
<svg xmlns="http://www.w3.org/2000/svg" xmlns:xlink="http://www.w3.org/1999/xlink" width="18pt" height="22pt" viewBox="0 0 18 22" version="1.1">
<g id="surface6">
<path style=" stroke:none;fill-rule:evenodd;fill:rgb(96.078431%,50.588235%,19.607843%);fill-opacity:1;" d="M 8.726562 19.488281 L 8.726562 10.855469 L 10.597656 9.777344 L 16.203125 6.539062 L 16.203125 15.171875 Z M 0.796875 6.539062 L 6.402344 9.777344 L 8.273438 10.855469 L 8.273438 19.488281 L 0.796875 15.171875 Z M 8.5 1.828125 L 15.976562 6.144531 L 10.367188 9.382812 L 8.5 10.460938 L 6.632812 9.382812 L 1.023438 6.144531 Z M 16.546875 5.945312 L 8.613281 1.367188 C 8.542969 1.328125 8.457031 1.328125 8.386719 1.367188 L 0.453125 5.945312 C 0.382812 5.988281 0.339844 6.0625 0.339844 6.144531 L 0.339844 15.304688 C 0.339844 15.382812 0.382812 15.460938 0.453125 15.5 L 8.386719 20.082031 C 8.421875 20.101562 8.460938 20.109375 8.5 20.109375 C 8.539062 20.109375 8.578125 20.101562 8.613281 20.082031 L 16.546875 15.5 C 16.617188 15.460938 16.660156 15.382812 16.660156 15.304688 L 16.660156 6.144531 C 16.660156 6.0625 16.617188 5.988281 16.546875 5.945312 Z M 16.546875 5.945312 "/>
<path style=" stroke:none;fill-rule:evenodd;fill:rgb(55.294118%,67.45098%,81.176471%);fill-opacity:1;" d="M 1.347656 11.46875 L 4.292969 13.171875 L 4.292969 16.574219 L 1.347656 14.871094 Z M 1.347656 11.46875 "/>
<path style=" stroke:none;fill-rule:evenodd;fill:rgb(31.372549%,45.490196%,61.176471%);fill-opacity:1;" d="M 7.714844 11.46875 L 7.714844 14.871094 L 4.765625 16.574219 L 4.765625 13.171875 Z M 7.714844 11.46875 "/>
<path style=" stroke:none;fill-rule:evenodd;fill:rgb(78.039216%,86.27451%,94.901961%);fill-opacity:1;" d="M 4.53125 9.355469 L 7.480469 11.058594 L 4.53125 12.761719 L 1.582031 11.058594 Z M 4.53125 9.355469 "/>
<path style=" stroke:none;fill-rule:evenodd;fill:rgb(69.019608%,58.823529%,81.176471%);fill-opacity:1;" d="M 5.3125 4.566406 L 8.261719 6.269531 L 8.261719 9.679688 L 5.3125 7.976562 Z M 5.3125 4.566406 "/>
<path style=" stroke:none;fill-rule:evenodd;fill:rgb(46.27451%,36.078431%,61.176471%);fill-opacity:1;" d="M 11.6875 4.566406 L 11.6875 7.976562 L 8.734375 9.679688 L 8.734375 6.269531 Z M 11.6875 4.566406 "/>
<path style=" stroke:none;fill-rule:evenodd;fill:rgb(88.627451%,80.392157%,95.294118%);fill-opacity:1;" d="M 8.5 2.453125 L 11.449219 4.15625 L 8.5 5.863281 L 5.546875 4.15625 Z M 8.5 2.453125 "/>
<path style=" stroke:none;fill-rule:evenodd;fill:rgb(66.27451%,80.392157%,56.862745%);fill-opacity:1;" d="M 9.300781 11.445312 L 12.230469 13.136719 L 12.230469 16.519531 L 9.300781 14.828125 Z M 9.300781 11.445312 "/>
<path style=" stroke:none;fill-rule:evenodd;fill:rgb(43.137255%,60.392157%,34.509804%);fill-opacity:1;" d="M 15.628906 11.445312 L 15.628906 14.828125 L 12.699219 16.519531 L 12.699219 13.136719 Z M 15.628906 11.445312 "/>
<path style=" stroke:none;fill-rule:evenodd;fill:rgb(85.490196%,94.509804%,80%);fill-opacity:1;" d="M 12.464844 9.347656 L 15.394531 11.039062 L 12.464844 12.730469 L 9.535156 11.039062 Z M 12.464844 9.347656 "/>
<path style=" stroke:none;fill-rule:evenodd;fill:rgb(66.27451%,80.392157%,56.862745%);fill-opacity:1;" d="M 15.628906 10.6875 L 12.886719 9.101562 L 15.628906 7.523438 Z M 15.628906 10.6875 "/>
<path style=" stroke:none;fill-rule:evenodd;fill:rgb(66.27451%,80.392157%,56.862745%);fill-opacity:1;" d="M 9.300781 15.324219 L 12.046875 16.910156 L 9.300781 18.488281 Z M 9.300781 15.324219 "/>
<path style=" stroke:none;fill-rule:evenodd;fill:rgb(55.294118%,67.45098%,81.176471%);fill-opacity:1;" d="M 4.953125 16.949219 L 7.699219 15.367188 L 7.695312 18.535156 Z M 4.953125 16.949219 "/>
<path style=" stroke:none;fill-rule:evenodd;fill:rgb(55.294118%,67.45098%,81.176471%);fill-opacity:1;" d="M 4.105469 9.152344 L 1.359375 10.734375 L 1.359375 7.570312 Z M 4.105469 9.152344 "/>
<path style=" stroke:none;fill-rule:evenodd;fill:rgb(69.019608%,58.823529%,81.176471%);fill-opacity:1;" d="M 4.894531 4.542969 L 4.890625 7.710938 L 2.152344 6.128906 Z M 4.894531 4.542969 "/>
<path style=" stroke:none;fill-rule:evenodd;fill:rgb(69.019608%,58.823529%,81.176471%);fill-opacity:1;" d="M 12.070312 7.707031 L 12.074219 4.539062 L 14.8125 6.121094 Z M 12.070312 7.707031 "/>
</g>
</svg>
